<mxfile host="65bd71144e">
    <diagram id="9pw-dQEB62d-saBvswQ5" name="Page-1">
        <mxGraphModel dx="414" dy="2113" grid="1" gridSize="10" guides="1" tooltips="1" connect="1" arrows="1" fold="1" page="1" pageScale="1" pageWidth="850" pageHeight="1100" background="#ffffff" math="0" shadow="0">
            <root>
                <mxCell id="0"/>
                <mxCell id="1" parent="0"/>
                <mxCell id="4" value="" style="edgeStyle=none;html=1;" parent="1" target="3" edge="1">
                    <mxGeometry relative="1" as="geometry">
                        <mxPoint x="845" y="-1030" as="sourcePoint"/>
                    </mxGeometry>
                </mxCell>
                <mxCell id="8" value="" style="edgeStyle=none;html=1;" parent="1" source="3" target="5" edge="1">
                    <mxGeometry relative="1" as="geometry"/>
                </mxCell>
                <mxCell id="3" value="fun get_data()" style="whiteSpace=wrap;html=1;" parent="1" vertex="1">
                    <mxGeometry x="785" y="-990" width="120" height="60" as="geometry"/>
                </mxCell>
                <mxCell id="15" style="edgeStyle=none;html=1;entryX=0.5;entryY=0;entryDx=0;entryDy=0;" parent="1" source="5" target="13" edge="1">
                    <mxGeometry relative="1" as="geometry">
                        <Array as="points">
                            <mxPoint x="965" y="-860"/>
                        </Array>
                    </mxGeometry>
                </mxCell>
                <mxCell id="5" value="class time_series()" style="whiteSpace=wrap;html=1;" parent="1" vertex="1">
                    <mxGeometry x="785" y="-890" width="120" height="60" as="geometry"/>
                </mxCell>
                <mxCell id="7" value="Dictionary of DataFrames for each location&#39;s components(u,v)" style="text;strokeColor=none;align=center;fillColor=none;html=1;verticalAlign=middle;whiteSpace=wrap;rounded=0;" parent="1" vertex="1">
                    <mxGeometry x="845" y="-930" width="340" height="30" as="geometry"/>
                </mxCell>
                <mxCell id="17" style="edgeStyle=none;html=1;endArrow=none;endFill=0;" parent="1" source="10" edge="1">
                    <mxGeometry relative="1" as="geometry">
                        <mxPoint x="845" y="-700" as="targetPoint"/>
                        <Array as="points">
                            <mxPoint x="725" y="-700"/>
                        </Array>
                    </mxGeometry>
                </mxCell>
                <mxCell id="10" value="fun compute_wdir_time_series()" style="whiteSpace=wrap;html=1;" parent="1" vertex="1">
                    <mxGeometry x="635" y="-800" width="180" height="60" as="geometry"/>
                </mxCell>
                <mxCell id="12" style="edgeStyle=none;html=1;exitX=0;exitY=0.5;exitDx=0;exitDy=0;" parent="1" source="5" edge="1">
                    <mxGeometry relative="1" as="geometry">
                        <mxPoint x="725" y="-803" as="targetPoint"/>
                        <Array as="points">
                            <mxPoint x="725" y="-860"/>
                        </Array>
                    </mxGeometry>
                </mxCell>
                <mxCell id="19" style="edgeStyle=none;html=1;endArrow=none;endFill=0;" parent="1" source="13" edge="1">
                    <mxGeometry relative="1" as="geometry">
                        <mxPoint x="845" y="-699.9999999999998" as="targetPoint"/>
                        <Array as="points">
                            <mxPoint x="965" y="-700"/>
                        </Array>
                    </mxGeometry>
                </mxCell>
                <mxCell id="13" value="fun compute_wdir_time_series()" style="whiteSpace=wrap;html=1;" parent="1" vertex="1">
                    <mxGeometry x="875" y="-800" width="180" height="60" as="geometry"/>
                </mxCell>
                <mxCell id="95" value="" style="edgeStyle=none;html=1;entryX=-0.019;entryY=0.779;entryDx=0;entryDy=0;entryPerimeter=0;" parent="1" source="16" target="80" edge="1">
                    <mxGeometry relative="1" as="geometry"/>
                </mxCell>
                <mxCell id="16" value="Dictionary of DataFrames for each location&#39;s time series" style="text;strokeColor=none;align=center;fillColor=none;html=1;verticalAlign=middle;whiteSpace=wrap;rounded=0;" parent="1" vertex="1">
                    <mxGeometry x="845" y="-700" width="310" height="30" as="geometry"/>
                </mxCell>
                <mxCell id="21" value="" style="edgeStyle=none;html=1;startArrow=classic;startFill=1;endArrow=none;endFill=0;" parent="1" source="20" edge="1">
                    <mxGeometry relative="1" as="geometry">
                        <mxPoint x="845" y="-700" as="targetPoint"/>
                        <Array as="points">
                            <mxPoint x="845" y="-700"/>
                        </Array>
                    </mxGeometry>
                </mxCell>
                <mxCell id="30" style="edgeStyle=none;html=1;entryX=0.5;entryY=0;entryDx=0;entryDy=0;exitX=0.008;exitY=0.662;exitDx=0;exitDy=0;exitPerimeter=0;" parent="1" source="20" target="26" edge="1">
                    <mxGeometry relative="1" as="geometry">
                        <Array as="points">
                            <mxPoint x="745" y="-620"/>
                            <mxPoint x="725" y="-620"/>
                        </Array>
                    </mxGeometry>
                </mxCell>
                <mxCell id="32" style="edgeStyle=none;html=1;entryX=0.5;entryY=0;entryDx=0;entryDy=0;exitX=0.994;exitY=0.686;exitDx=0;exitDy=0;exitPerimeter=0;" parent="1" source="20" target="27" edge="1">
                    <mxGeometry relative="1" as="geometry">
                        <Array as="points">
                            <mxPoint x="965" y="-620"/>
                        </Array>
                    </mxGeometry>
                </mxCell>
                <mxCell id="20" value="class wind_interpolator()" style="whiteSpace=wrap;html=1;" parent="1" vertex="1">
                    <mxGeometry x="765" y="-660" width="160" height="60" as="geometry"/>
                </mxCell>
                <mxCell id="29" value="" style="edgeStyle=none;html=1;entryX=0;entryY=0.25;entryDx=0;entryDy=0;" parent="1" target="20" edge="1">
                    <mxGeometry relative="1" as="geometry">
                        <mxPoint x="735" y="-645" as="sourcePoint"/>
                    </mxGeometry>
                </mxCell>
                <mxCell id="23" value="Coordinates" style="text;strokeColor=none;align=center;fillColor=none;html=1;verticalAlign=middle;whiteSpace=wrap;rounded=0;" parent="1" vertex="1">
                    <mxGeometry x="665" y="-660" width="60" height="30" as="geometry"/>
                </mxCell>
                <mxCell id="25" value="nc files paths" style="text;strokeColor=none;align=center;fillColor=none;html=1;verticalAlign=middle;whiteSpace=wrap;rounded=0;" parent="1" vertex="1">
                    <mxGeometry x="805" y="-1060" width="80" height="30" as="geometry"/>
                </mxCell>
                <mxCell id="26" value="fun speed_interpolator()" style="whiteSpace=wrap;html=1;" parent="1" vertex="1">
                    <mxGeometry x="635" y="-570" width="180" height="60" as="geometry"/>
                </mxCell>
                <mxCell id="27" value="fun direction_interpolator()" style="whiteSpace=wrap;html=1;" parent="1" vertex="1">
                    <mxGeometry x="875" y="-570" width="180" height="60" as="geometry"/>
                </mxCell>
                <mxCell id="33" style="edgeStyle=none;html=1;endArrow=none;endFill=0;" parent="1" edge="1">
                    <mxGeometry relative="1" as="geometry">
                        <mxPoint x="845" y="-470" as="targetPoint"/>
                        <mxPoint x="725" y="-510" as="sourcePoint"/>
                        <Array as="points">
                            <mxPoint x="725" y="-470"/>
                        </Array>
                    </mxGeometry>
                </mxCell>
                <mxCell id="34" style="edgeStyle=none;html=1;endArrow=none;endFill=0;" parent="1" edge="1">
                    <mxGeometry relative="1" as="geometry">
                        <mxPoint x="845" y="-469.9999999999998" as="targetPoint"/>
                        <mxPoint x="965" y="-510" as="sourcePoint"/>
                        <Array as="points">
                            <mxPoint x="965" y="-470"/>
                        </Array>
                    </mxGeometry>
                </mxCell>
                <mxCell id="35" value="" style="edgeStyle=none;html=1;startArrow=classic;startFill=1;endArrow=none;endFill=0;" parent="1" edge="1">
                    <mxGeometry relative="1" as="geometry">
                        <mxPoint x="845" y="-430" as="sourcePoint"/>
                        <mxPoint x="845" y="-470" as="targetPoint"/>
                        <Array as="points">
                            <mxPoint x="845" y="-470"/>
                        </Array>
                    </mxGeometry>
                </mxCell>
                <mxCell id="36" value="DataFrame of time series for selected location" style="text;strokeColor=none;align=center;fillColor=none;html=1;verticalAlign=middle;whiteSpace=wrap;rounded=0;" parent="1" vertex="1">
                    <mxGeometry x="825" y="-470" width="310" height="30" as="geometry"/>
                </mxCell>
                <mxCell id="41" value="" style="edgeStyle=none;html=1;" parent="1" source="37" target="40" edge="1">
                    <mxGeometry relative="1" as="geometry"/>
                </mxCell>
                <mxCell id="37" value="fun compute_wind_speed_power_law()" style="whiteSpace=wrap;html=1;" parent="1" vertex="1">
                    <mxGeometry x="735" y="-430" width="220" height="60" as="geometry"/>
                </mxCell>
                <mxCell id="50" value="" style="edgeStyle=none;html=1;" parent="1" source="40" target="49" edge="1">
                    <mxGeometry relative="1" as="geometry"/>
                </mxCell>
                <mxCell id="61" style="edgeStyle=none;html=1;entryX=0.5;entryY=0;entryDx=0;entryDy=0;" parent="1" source="40" target="51" edge="1">
                    <mxGeometry relative="1" as="geometry">
                        <Array as="points">
                            <mxPoint x="675" y="-300"/>
                        </Array>
                    </mxGeometry>
                </mxCell>
                <mxCell id="62" style="edgeStyle=none;html=1;entryX=0.5;entryY=0;entryDx=0;entryDy=0;" parent="1" source="40" target="43" edge="1">
                    <mxGeometry relative="1" as="geometry">
                        <Array as="points">
                            <mxPoint x="1025" y="-300"/>
                        </Array>
                    </mxGeometry>
                </mxCell>
                <mxCell id="40" value="fun class weibull()" style="whiteSpace=wrap;html=1;" parent="1" vertex="1">
                    <mxGeometry x="785" y="-330" width="120" height="60" as="geometry"/>
                </mxCell>
                <mxCell id="42" value="DataFrame of time series for selected location, including speed at height" style="text;strokeColor=none;align=center;fillColor=none;html=1;verticalAlign=middle;whiteSpace=wrap;rounded=0;" parent="1" vertex="1">
                    <mxGeometry x="850" y="-360" width="305" height="30" as="geometry"/>
                </mxCell>
                <mxCell id="48" value="" style="edgeStyle=none;html=1;" parent="1" source="43" target="47" edge="1">
                    <mxGeometry relative="1" as="geometry"/>
                </mxCell>
                <mxCell id="43" value="fun obtain_parameters()" style="whiteSpace=wrap;html=1;" parent="1" vertex="1">
                    <mxGeometry x="955" y="-240" width="140" height="60" as="geometry"/>
                </mxCell>
                <mxCell id="47" value="Weibull parameters A,k" style="text;strokeColor=none;align=center;fillColor=none;html=1;verticalAlign=middle;whiteSpace=wrap;rounded=0;" parent="1" vertex="1">
                    <mxGeometry x="970" y="-150" width="110" height="30" as="geometry"/>
                </mxCell>
                <mxCell id="49" value="fun plot_pdf()" style="whiteSpace=wrap;html=1;" parent="1" vertex="1">
                    <mxGeometry x="785" y="-240" width="120" height="60" as="geometry"/>
                </mxCell>
                <mxCell id="54" value="" style="edgeStyle=none;html=1;" parent="1" source="51" target="53" edge="1">
                    <mxGeometry relative="1" as="geometry"/>
                </mxCell>
                <mxCell id="51" value="fun get_pdf()" style="whiteSpace=wrap;html=1;" parent="1" vertex="1">
                    <mxGeometry x="615" y="-240" width="120" height="60" as="geometry"/>
                </mxCell>
                <mxCell id="53" value="Weibull pdf" style="text;strokeColor=none;align=center;fillColor=none;html=1;verticalAlign=middle;whiteSpace=wrap;rounded=0;" parent="1" vertex="1">
                    <mxGeometry x="645" y="-150" width="60" height="30" as="geometry"/>
                </mxCell>
                <mxCell id="97" style="edgeStyle=none;html=1;entryX=0.5;entryY=0;entryDx=0;entryDy=0;exitX=0.25;exitY=1;exitDx=0;exitDy=0;" parent="1" source="55" target="80" edge="1">
                    <mxGeometry relative="1" as="geometry">
                        <Array as="points">
                            <mxPoint x="1430" y="-800"/>
                            <mxPoint x="1360" y="-800"/>
                        </Array>
                    </mxGeometry>
                </mxCell>
                <mxCell id="55" value="class turbine()" style="whiteSpace=wrap;html=1;" parent="1" vertex="1">
                    <mxGeometry x="1400" y="-880" width="120" height="60" as="geometry"/>
                </mxCell>
                <mxCell id="81" value="" style="edgeStyle=none;html=1;entryX=0.5;entryY=0;entryDx=0;entryDy=0;" parent="1" source="72" target="55" edge="1">
                    <mxGeometry relative="1" as="geometry">
                        <mxPoint x="1410" y="-880" as="targetPoint"/>
                    </mxGeometry>
                </mxCell>
                <mxCell id="72" value="fun load_turbines()" style="whiteSpace=wrap;html=1;" parent="1" vertex="1">
                    <mxGeometry x="1400" y="-980" width="120" height="60" as="geometry"/>
                </mxCell>
                <mxCell id="79" value="Dictionary with Turbine&#39;s power curve" style="text;strokeColor=none;align=center;fillColor=none;html=1;verticalAlign=middle;whiteSpace=wrap;rounded=0;" parent="1" vertex="1">
                    <mxGeometry x="1470" y="-910" width="135" height="30" as="geometry"/>
                </mxCell>
                <mxCell id="100" value="" style="edgeStyle=none;html=1;" parent="1" source="80" target="99" edge="1">
                    <mxGeometry relative="1" as="geometry"/>
                </mxCell>
                <mxCell id="80" value="fun compute_AEP()" style="whiteSpace=wrap;html=1;" parent="1" vertex="1">
                    <mxGeometry x="1300" y="-770" width="120" height="110" as="geometry"/>
                </mxCell>
                <mxCell id="92" value="" style="edgeStyle=none;html=1;entryX=0.005;entryY=0.142;entryDx=0;entryDy=0;entryPerimeter=0;" parent="1" source="82" target="80" edge="1">
                    <mxGeometry relative="1" as="geometry"/>
                </mxCell>
                <mxCell id="82" value="Turbine" style="text;html=1;align=center;verticalAlign=middle;resizable=0;points=[];autosize=1;strokeColor=none;fillColor=none;" parent="1" vertex="1">
                    <mxGeometry x="1185" y="-770" width="60" height="30" as="geometry"/>
                </mxCell>
                <mxCell id="96" value="" style="edgeStyle=none;html=1;entryX=-0.005;entryY=0.342;entryDx=0;entryDy=0;entryPerimeter=0;" parent="1" source="83" target="80" edge="1">
                    <mxGeometry relative="1" as="geometry"/>
                </mxCell>
                <mxCell id="83" value="Coordinates" style="text;html=1;align=center;verticalAlign=middle;resizable=0;points=[];autosize=1;strokeColor=none;fillColor=none;" parent="1" vertex="1">
                    <mxGeometry x="1170" y="-750" width="90" height="30" as="geometry"/>
                </mxCell>
                <mxCell id="94" value="" style="edgeStyle=none;html=1;" parent="1" source="84" target="80" edge="1">
                    <mxGeometry relative="1" as="geometry"/>
                </mxCell>
                <mxCell id="84" value="Year" style="text;html=1;align=center;verticalAlign=middle;resizable=0;points=[];autosize=1;strokeColor=none;fillColor=none;" parent="1" vertex="1">
                    <mxGeometry x="1190" y="-730" width="50" height="30" as="geometry"/>
                </mxCell>
                <mxCell id="89" value="" style="edgeStyle=none;html=1;" parent="1" source="71" target="72" edge="1">
                    <mxGeometry relative="1" as="geometry"/>
                </mxCell>
                <mxCell id="71" value="turbine&#39;s file paths" style="text;html=1;align=center;verticalAlign=middle;resizable=0;points=[];autosize=1;strokeColor=none;fillColor=none;" parent="1" vertex="1">
                    <mxGeometry x="1400" y="-1040" width="120" height="30" as="geometry"/>
                </mxCell>
                <mxCell id="99" value="AEP in kWh" style="text;html=1;align=center;verticalAlign=middle;resizable=0;points=[];autosize=1;strokeColor=none;fillColor=none;" parent="1" vertex="1">
                    <mxGeometry x="1315" y="-622" width="90" height="30" as="geometry"/>
                </mxCell>
                <mxCell id="101" value="fun plot_power_curve" style="whiteSpace=wrap;html=1;" parent="1" vertex="1">
                    <mxGeometry x="1500" y="-765" width="120" height="60" as="geometry"/>
                </mxCell>
                <mxCell id="102" style="edgeStyle=none;html=1;entryX=0.559;entryY=0.021;entryDx=0;entryDy=0;entryPerimeter=0;exitX=0.75;exitY=1;exitDx=0;exitDy=0;" parent="1" source="55" target="101" edge="1">
                    <mxGeometry relative="1" as="geometry">
                        <Array as="points">
                            <mxPoint x="1490" y="-800"/>
                            <mxPoint x="1567" y="-800"/>
                        </Array>
                    </mxGeometry>
                </mxCell>
            </root>
        </mxGraphModel>
    </diagram>
</mxfile>